# xmcd CD database file
#
# Track frame offsets:
#	150
#	17053
#	30003
#	46185
#	62377
#	75195
#	87940
#	97812
#	111576
#	127030
#	139236
#	158048
#	173135
#	185708
#
# Disc length: 2637 seconds
#
# Revision: 3
# Processed by: cddbd v1.5.2PL0 Copyright (c) Steve Scherf et al.
# Submitted via: CDex 1.51
#
DISCID=a40a4b0e
DTITLE=Varios - Mexe Mexe Que é Bom
DYEAR=2001
DGENRE=Country
TTITLE0=Mexe Mexe Que é Bom - Zezé di Camargo and Luciano
TTITLE1=A Garagem da Vizinha - Sandro e Gustavo
TTITLE2=Muleca - Rick e Renner
TTITLE3=Nóis é Caubói - João Carlos e Viriato
TTITLE4=Caí no Laço -  André Silva e Cristiano
TTITLE5=Bate o Pé - Rio Negro e Solimões
TTITLE6=Quem Tem, Medo Tem - Teodoro e Sampaio
TTITLE7=Mocinha da Cidade - Célio e Cerrone
TTITLE8=Pura Emoção - Chitãozinho e Xororó
TTITLE9=Feriado Nacional - Bruno e Marrone
TTITLE10=Você Virou Saudade - Emílio e Eduardo
TTITLE11=Ajoelhou Tem Que Rezar - Wilson e Soraia
TTITLE12=Piseiro - Taíde e Alexandre
TTITLE13=Forró, Suor e Fricote - Giancarlo e Todechine
EXTD=YEAR: 2001
EXTT0=
EXTT1=
EXTT2=
EXTT3=
EXTT4=
EXTT5=
EXTT6=
EXTT7=
EXTT8=
EXTT9=
EXTT10=
EXTT11=
EXTT12=
EXTT13=
PLAYORDER=
